<svg width="53" height="55" viewBox="0 0 53 55" xmlns="http://www.w3.org/2000/svg"><title>Fill 3 + envelope icon</title><g fill="#FFF" fill-rule="evenodd"><path d="M26.026 54.744c14.375 0 26.028-12.1 26.028-27.03C52.054 12.787 40.4.684 26.026.684 11.65.684 0 12.787 0 27.714c0 14.93 11.65 27.03 26.026 27.03" fill-opacity=".5"/><path d="M27.276 28.078L40.398 17H11.485l13.123 11.078c.773.653 1.894.653 2.668 0M40.405 39.87L28.128 29.038l-.054.046c-1.235 1.043-3.03 1.043-4.264 0l-.013-.01L11.56 39.87h28.845M22.806 28.237L10.5 17.847v21.248l12.306-10.858M41.374 39.015v-21.16L29.12 28.203l12.254 10.813"/></g></svg>