<?xml version="1.0" encoding="utf-8"?>
<!-- Generator: Adobe Illustrator 19.1.0, SVG Export Plug-In . SVG Version: 6.00 Build 0)  -->
<svg width="21px" height="20px" version="1.1" id="Layer_1" xmlns:sketch="http://www.bohemiancoding.com/sketch/ns"
	 xmlns="http://www.w3.org/2000/svg" xmlns:xlink="http://www.w3.org/1999/xlink" x="0px" y="0px" viewBox="-296 388 18 17"
	 style="enable-background:new -296 388 18 17;" xml:space="preserve">
<style type="text/css">
	.st0{fill:none;stroke:#FFFFFF;stroke-miterlimit:10;}
</style>
<title>Fill 2</title>
<desc>Created with Sketch.</desc>
<g>
	<polyline class="st0" points="-295,395.8 -287.4,400.9 -279.8,395.8 	"/>
	<line class="st0" x1="-295" y1="404.2" x2="-290" y2="399.2"/>
	<line class="st0" x1="-285" y1="399.1" x2="-279.9" y2="404.2"/>
	<path class="st0" d="M-279.9,395.4h-3.2v-0.1l-3.6-6.3c-0.1-0.1-0.3-0.2-0.4-0.1l-5,2.9c-0.1,0.1-0.2,0.3-0.1,0.4l1.9,3.3h-4.6
		c-0.2,0-0.3,0.1-0.3,0.3v8.2c0,0.2,0.1,0.3,0.3,0.3h15.1c0.2,0,0.3-0.1,0.3-0.3v-8.2C-279.6,395.6-279.7,395.4-279.9,395.4z"/>
	<path class="st0" d="M-283.8,396.1l-3.9,2.2c-0.5,0.3-1.1,0.1-1.4-0.4l-2.9-5c-0.3-0.5-0.1-1.1,0.4-1.4l3.9-2.2
		c0.5-0.3,1.1-0.1,1.4,0.4l2.9,5C-283.2,395.2-283.3,395.8-283.8,396.1z"/>
</g>
</svg>
