<svg width="53" height="55" viewBox="0 0 53 55" xmlns="http://www.w3.org/2000/svg"><title>Fill 5 + Fill 6</title><g fill="none" fill-rule="evenodd"><path d="M26.32 54.744c14.373 0 26.026-12.1 26.026-27.03 0-14.927-11.653-27.03-26.027-27.03C11.943.684.29 12.787.29 27.714c0 14.93 11.654 27.03 26.03 27.03" fill="#415E9C"/><path d="M20.04 23.136h2.69V20.42c0-1.197.03-3.044.868-4.187.882-1.21 2.093-2.035 4.177-2.035 3.394 0 4.823.503 4.823.503l-.672 4.14s-1.122-.336-2.168-.336c-1.047 0-1.983.39-1.983 1.477v3.156h4.29l-.3 4.045h-3.99V41.23H22.73V27.18h-2.69v-4.044" fill="#FFF"/></g></svg>