<svg width="18" height="17" viewBox="0 0 18 17" xmlns="http://www.w3.org/2000/svg"><title>Fill 2</title><path d="M11.628 10.91c.675-.63 1.476-.947 2.4-.947.978 0 1.81.343 2.497 1.03.686.687 1.03 1.52 1.03 2.495 0 .977-.344 1.81-1.03 2.496-.688.686-1.52 1.03-2.496 1.03-.978 0-1.81-.344-2.496-1.03-.687-.687-1.03-1.52-1.03-2.496 0-.088.007-.213.022-.374L6.56 11.13c-.676.633-1.476.948-2.402.948-.977 0-1.808-.343-2.495-1.03C.976 10.362.633 9.53.633 8.553c0-.977.343-1.808 1.03-2.495s1.518-1.03 2.495-1.03c.926 0 1.726.315 2.402.947l3.966-1.983c-.015-.162-.022-.286-.022-.375 0-.976.343-1.808 1.03-2.495S13.052.092 14.03.092c.976 0 1.807.343 2.495 1.03.686.687 1.03 1.52 1.03 2.495 0 .977-.344 1.81-1.03 2.496-.688.686-1.52 1.03-2.496 1.03-.926 0-1.727-.316-2.402-.948L7.66 8.18c.016.16.024.285.024.373 0 .088-.008.213-.023.375l3.968 1.982" fill="#FFF" fill-rule="evenodd"/></svg>