<svg id="Layer_1" xmlns="http://www.w3.org/2000/svg" viewBox="-296 388 18 17"><style>.st0{fill:none;stroke:#FFFFFF;stroke-miterlimit:10;}</style><title>Fill 2</title><path class="st0" d="M-295 395.8l7.6 5.1 7.6-5.1M-295 404.2l5-5M-285 399.1l5.1 5.1"/><path class="st0" d="M-279.9 395.4h-3.2v-.1l-3.6-6.3c-.1-.1-.3-.2-.4-.1l-5 2.9c-.1.1-.2.3-.1.4l1.9 3.3h-4.6c-.2 0-.3.1-.3.3v8.2c0 .2.1.3.3.3h15.1c.2 0 .3-.1.3-.3v-8.2c-.1-.2-.2-.4-.4-.4z"/><path class="st0" d="M-283.8 396.1l-3.9 2.2c-.5.3-1.1.1-1.4-.4l-2.9-5c-.3-.5-.1-1.1.4-1.4l3.9-2.2c.5-.3 1.1-.1 1.4.4l2.9 5c.2.5.1 1.1-.4 1.4z"/></svg>