<svg width="53" height="55" viewBox="0 0 53 55" xmlns="http://www.w3.org/2000/svg"><title>Fill 1 + Fill 2</title><g fill="none" fill-rule="evenodd"><path d="M26.026 54.744c14.375 0 26.028-12.1 26.028-27.03C52.054 12.787 40.4.684 26.026.684 11.65.684 0 12.787 0 27.714c0 14.93 11.65 27.03 26.026 27.03" fill="#55ACEE"/><path d="M39.084 20.632c-.96.442-1.99.74-3.072.875 1.106-.687 1.954-1.776 2.352-3.072-1.034.636-2.178 1.098-3.398 1.346-.973-1.08-2.365-1.752-3.904-1.752-2.953 0-5.347 2.487-5.347 5.554 0 .437.045.86.137 1.265-4.445-.232-8.385-2.442-11.026-5.805-.46.824-.724 1.778-.724 2.795 0 1.926.945 3.627 2.38 4.624-.876-.027-1.7-.28-2.423-.693v.07c0 2.692 1.842 4.937 4.29 5.445-.45.13-.92.196-1.41.196-.344 0-.68-.033-1.005-.098.68 2.205 2.654 3.813 4.996 3.855-1.83 1.49-4.136 2.378-6.642 2.378-.432 0-.86-.024-1.276-.076 2.367 1.575 5.18 2.495 8.2 2.495 9.84 0 15.218-8.463 15.218-15.805 0-.242-.005-.482-.014-.72 1.045-.782 1.952-1.76 2.668-2.875" fill="#FFF"/></g></svg>